Coordinates
version=1
nRows=9
nColumns=24
inDegrees=yes

Units are S.I. units (second, meters, Newtons, ...)
Angles are in degrees.

endheader
time	pelvis_tilt	pelvis_list	pelvis_rotation	pelvis_tx	pelvis_ty	pelvis_tz	hip_flexion_r	hip_adduction_r	hip_rotation_r	knee_angle_r	ankle_angle_r	subtalar_angle_r	mtp_angle_r	hip_flexion_l	hip_adduction_l	hip_rotation_l	knee_angle_l	ankle_angle_l	subtalar_angle_l	mtp_angle_l	lumbar_extension	lumbar_bending	lumbar_rotation
      0.62500000	     -0.79737808	      8.26867645	     -0.73235701	     -0.83802670	      1.05617622	      0.30349948	     25.64892506	     -3.48537566	    -10.94116375	      1.47035449	      8.44919935	      3.81510358	      0.16030295	    -21.87384746	     14.23819877	     -1.61315583	      0.58726358	     -2.80404338	     -0.76023656	      0.05629882	      4.22389550	     -6.21262224	      0.01161713
      0.62916667	     -0.70388290	      8.21294020	     -0.67888578	     -0.83146465	      1.05604872	      0.30324267	     25.42748428	     -3.42175234	    -10.69918294	      1.13969113	      8.73067292	      3.64332964	      0.18357052	    -22.14276765	     14.14303050	     -1.38065383	      0.24222590	     -3.11777670	     -0.95241658	      0.08095043	      4.17329177	     -6.06950911	     -0.13052307
      0.63333333	     -0.69576041	      8.19590496	     -0.60912759	     -0.82489947	      1.05579787	      0.30297905	     25.32158845	     -3.39881241	    -10.55752788	      0.75653022	      8.73127510	      3.60510676	      0.18793829	    -22.27650556	     14.08820654	     -1.33192211	     -0.19733669	     -3.22302654	     -1.00049298	      0.08669664	      4.23552878	     -6.00920571	     -0.15067039
      0.63750000	     -0.54273198	      8.14948716	     -0.64293589	     -0.81840684	      1.05568312	      0.30285259	     25.02050161	     -3.31519027	     -9.91629266	      0.44260391	      8.80081463	      2.80250124	      0.23884894	    -22.58803487	     14.02657635	     -1.08834454	     -0.52736577	     -3.89576144	     -1.64753431	      0.20728798	      4.07632412	     -5.92163310	     -0.35351818
      0.64166667	     -0.54360400	      8.11918846	     -0.53893617	     -0.81171938	      1.05549633	      0.30255235	     24.88578886	     -3.29827076	     -9.73154064	      0.06395196	      8.80065521	      2.78576363	      0.24400864	    -22.67449433	     13.93866252	     -1.01470719	     -1.04413178	     -4.02365821	     -1.65052024	      0.21750213	      4.15841943	     -5.83880962	     -0.36165580
      0.64583333	     -0.53817586	      8.04560659	     -0.47099600	     -0.80490256	      1.05530614	      0.30232919	     24.69301122	     -3.22268511	     -9.26382960	     -0.24474980	      8.89286505	      2.48668426	      0.26381471	    -22.79161220	     13.80825959	     -0.80896660	     -1.48225411	     -4.63833467	     -1.69395135	      0.26758207	      4.19833277	     -5.65640657	     -0.42154676
      0.65000000	     -0.51427876	      8.01832145	     -0.39018955	     -0.79826484	      1.05514844	      0.30204046	     24.53550510	     -3.20854606	     -9.08154170	     -0.64430045	      8.84618331	      2.40946811	      0.26866640	    -22.86663165	     13.72988343	     -0.79766626	     -2.04246183	     -4.77682328	     -1.75931620	      0.28229543	      4.27946362	     -5.58568631	     -0.43305283
      0.65416667	     -0.41533670	      7.92137412	     -0.43833641	     -0.79148330	      1.05506698	      0.30210162	     24.21219725	     -3.05818177	     -8.25885108	     -0.85153998	      8.51965795	      1.19030256	      0.33078263	    -23.01645287	     13.60036465	     -0.80200380	     -2.55209661	     -5.60042649	     -2.30854281	      0.53816789	      4.19130965	     -5.48507220	     -0.54842826
      0.65833333	     -0.39429980	      7.85324896	     -0.38726807	     -0.78470441	      1.05494447	      0.30186427	     24.01150257	     -2.99608361	     -7.92016890	     -1.17777665	      8.30044489	      0.92957498	      0.36828534	    -23.06472188	     13.48049571	     -0.74085065	     -3.11557611	     -6.12044163	     -2.25212100	      0.68798256	      4.28372359	     -5.30005444	     -0.58056875
